# OBJ File Exported By Crafty (c) 2006 Ryan Gregg
# http://nemesis.thewavelength.net/

mtllib observationroom.mtl

v -64.000008 192.043945 -62.999996
v 63.999996 64.043945 -63.000004
v -64.000008 64.043945 -62.999996
v 63.999989 192.043945 -63.000004
v 64.000000 -63.956051 -63.000004
v -64.000000 -63.956059 -62.999996
v -64.000008 64.043945 -62.999996
v -64.000008 192.043945 -68.948105
v -64.000008 192.043945 -62.999996
v -64.000008 64.043945 -68.948105
v -64.000008 192.043945 -62.999996
v 63.999989 192.043945 -68.948105
v 63.999989 192.043945 -63.000004
v -64.000008 192.043945 -68.948105
v 63.999989 192.043945 -63.000004
v 63.999992 64.043945 -68.948105
v 63.999996 64.043945 -63.000004
v 63.999989 192.043945 -68.948105
v -64.000000 -63.956059 -62.999996
v -64.000008 64.043945 -68.948105
v -64.000008 64.043945 -62.999996
v -64.000000 -63.956059 -68.948105
v 64.000000 -63.956051 -63.000004
v -64.000000 -63.956059 -68.948105
v -64.000000 -63.956059 -62.999996
v 64.000000 -63.956051 -68.948105
v 63.999996 64.043945 -63.000004
v 64.000000 -63.956051 -68.948105
v 64.000000 -63.956051 -63.000004
v 63.999992 64.043945 -68.948105
v 63.999992 64.043945 -68.948105
v 55.518414 182.956741 -68.948105
v 55.518417 64.043945 -68.948105
v 63.999989 192.043945 -68.948105
v -64.000008 64.043945 -68.948105
v -55.518436 182.956741 -68.948105
v -64.000008 192.043945 -68.948105
v -54.505051 64.043945 -68.948105
v 55.518425 -54.868843 -68.948105
v 64.000000 -63.956051 -68.948105
v -55.518425 -54.868851 -68.948105
v -64.000000 -63.956059 -68.948105
vn 0.000000 0.000000 1.000000
vn 0.000000 0.000000 1.000000
vn 0.000000 0.000000 1.000000
vn 0.000000 0.000000 1.000000
vn 0.000000 0.000000 1.000000
vn 0.000000 0.000000 1.000000
vn -1.000000 -0.000000 0.000000
vn -1.000000 -0.000000 0.000000
vn -1.000000 -0.000000 0.000000
vn -1.000000 -0.000000 0.000000
vn -0.000000 1.000000 0.000000
vn -0.000000 1.000000 0.000000
vn -0.000000 1.000000 0.000000
vn -0.000000 1.000000 0.000000
vn 1.000000 0.000000 -0.000000
vn 1.000000 0.000000 -0.000000
vn 1.000000 0.000000 -0.000000
vn 1.000000 0.000000 -0.000000
vn -1.000000 -0.000000 0.000000
vn -1.000000 -0.000000 0.000000
vn -1.000000 -0.000000 0.000000
vn -1.000000 -0.000000 0.000000
vn 0.000000 -1.000000 0.000000
vn 0.000000 -1.000000 0.000000
vn 0.000000 -1.000000 0.000000
vn 0.000000 -1.000000 0.000000
vn 1.000000 0.000000 -0.000000
vn 1.000000 0.000000 -0.000000
vn 1.000000 0.000000 -0.000000
vn 1.000000 0.000000 -0.000000
vn -0.000000 -0.000000 -1.000000
vn -0.000000 -0.000000 -1.000000
vn -0.000000 -0.000000 -1.000000
vn -0.000000 -0.000000 -1.000000
vn -0.000000 -0.000000 -1.000000
vn -0.000000 -0.000000 -1.000000
vn -0.000000 -0.000000 -1.000000
vn -0.000000 -0.000000 -1.000000
vn -0.000000 -0.000000 -1.000000
vn -0.000000 -0.000000 -1.000000
vn -0.000000 -0.000000 -1.000000
vn -0.000000 -0.000000 -1.000000
vt 0.000000 -1.000000
vt 0.500000 -0.000000
vt 0.500000 -1.000000
vt 0.000000 -0.000000
vt 1.000000 -0.000000
vt 1.000000 -1.000000
vt 0.010725 -0.809023
vt 0.009538 -0.190977
vt 0.009538 -0.809023
vt 0.010725 -0.190977
vt 0.010725 -0.809023
vt 0.009538 -0.190977
vt 0.009538 -0.809023
vt 0.010725 -0.190977
vt 0.010725 -0.809023
vt 0.009538 -0.190977
vt 0.009538 -0.809023
vt 0.010725 -0.190977
vt 0.010725 -0.809023
vt 0.009538 -0.190977
vt 0.009538 -0.809023
vt 0.010725 -0.190977
vt 0.010725 -0.809023
vt 0.009538 -0.190977
vt 0.009538 -0.809023
vt 0.010725 -0.190977
vt 0.010725 -0.809023
vt 0.009538 -0.190977
vt 0.009538 -0.809023
vt 0.010725 -0.190977
vt 0.494331 -0.498523
vt 0.492854 -0.498523
vt 0.494331 -0.498523
vt 0.492854 -0.498523
vt 0.494331 -0.501477
vt 0.492854 -0.501477
vt 0.492854 -0.501477
vt 0.494331 -0.501477
vt 0.495808 -0.498523
vt 0.495808 -0.498523
vt 0.495808 -0.501477
vt 0.495808 -0.501477
g body.dmx/observation_window_model.dmx.mesh_0
usemtl acmat_0
f 8/8/8 10/10/10 7/7/7
f 9/9/9 8/8/8 7/7/7
f 33/33/33 32/32/32 31/31/31
f 39/39/39 33/33/33 31/31/31
f 40/40/40 39/39/39 31/31/31
f 41/41/41 39/39/39 40/40/40
f 42/42/42 41/41/41 40/40/40
f 41/41/41 42/42/42 35/35/35
f 38/38/38 41/41/41 35/35/35
f 36/36/36 38/38/38 35/35/35
f 37/37/37 36/36/36 35/35/35
f 32/32/32 36/36/36 37/37/37
f 34/34/34 32/32/32 37/37/37
f 32/32/32 34/34/34 31/31/31
f 28/28/28 30/30/30 27/27/27
f 29/29/29 28/28/28 27/27/27
f 24/24/24 26/26/26 23/23/23
f 25/25/25 24/24/24 23/23/23
f 20/20/20 22/22/22 19/19/19
f 21/21/21 20/20/20 19/19/19
f 16/16/16 18/18/18 15/15/15
f 17/17/17 16/16/16 15/15/15
f 12/12/12 14/14/14 11/11/11
f 13/13/13 12/12/12 11/11/11
f 2/2/2 4/4/4 1/1/1
f 3/3/3 2/2/2 1/1/1
f 5/5/5 2/2/2 3/3/3
f 6/6/6 5/5/5 3/3/3
